<?xml version="1.0" encoding="UTF-8"?>
<!DOCTYPE svg PUBLIC "-//W3C//DTD SVG 1.1//EN" "http://www.w3.org/Graphics/SVG/1.1/DTD/svg11.dtd">
<!-- Creator: CorelDRAW -->
<svg xmlns="http://www.w3.org/2000/svg" xml:space="preserve" width="210mm" height="297mm" version="1.1" style="shape-rendering:geometricPrecision; text-rendering:geometricPrecision; image-rendering:optimizeQuality; fill-rule:evenodd; clip-rule:evenodd"
viewBox="0 0 21000 29700"
 xmlns:xlink="http://www.w3.org/1999/xlink"
 xmlns:xodm="http://www.corel.com/coreldraw/odm/2003">
 <defs>
  <style type="text/css">
   <![CDATA[
    .str0 {stroke:black;stroke-width:7.62;stroke-miterlimit:22.9256}
    .fil3 {fill:#25292E}
    .fil0 {fill:#333740}
    .fil25 {fill:#686C72}
    .fil24 {fill:#71767A}
    .fil1 {fill:#747A7D}
    .fil17 {fill:#787D82}
    .fil10 {fill:#7C8284}
    .fil15 {fill:#7F8588}
    .fil8 {fill:#83898B}
    .fil6 {fill:#888D92}
    .fil20 {fill:#8C9399}
    .fil16 {fill:#8D9395}
    .fil13 {fill:#92979A}
    .fil22 {fill:#949A9D}
    .fil5 {fill:#979DA3}
    .fil7 {fill:#9AA5A8}
    .fil4 {fill:#9CA2A5}
    .fil23 {fill:#9DA4AB}
    .fil11 {fill:#A1A6AB}
    .fil21 {fill:#A4AAAD}
    .fil14 {fill:#A6ACB3}
    .fil19 {fill:#AAB1AE}
    .fil2 {fill:#ACB3B5}
    .fil9 {fill:#B2B7BA}
    .fil12 {fill:#B4BABD}
    .fil18 {fill:#B7BDC1}
   ]]>
  </style>
 </defs>
 <g id="Capa_x0020_1">
  <metadata id="CorelCorpID_0Corel-Layer"/>
  <g id="_1924042908192">
   <path class="fil0 str0" d="M7505.08 14869.9l8.86 -25.08 0.55 -16.99c-0.2,-17.61 -5.3,-14.45 9.9,-14.45l0.91 -7.01 9.52 -11.17 10.59 -11.32 9.85 -8.71 9.74 -12.54 20.88 -8.62c0,-15.13 -3.15,-10.47 13.8,-8.91l29.38 1.14c80.3,-20.59 419.76,-22.19 497.71,0.88l19.84 -2.63 15.5 8.55 6.42 1.29 12.41 9.92 29.4 28.89c14.94,0 10.84,-3.49 10.43,12.22l9.01 13.53 -0.74 8.04 13.25 20.47 -9.72 101.59 -10.45 13.49 -0.11 4.49c-0.47,16.1 4.02,12.77 -10.87,12.62l-11.07 9.34 -9.3 11.41 -21.14 8.95 -13.74 8.74 -26.09 1.07c-91.35,17.07 -412.38,16.77 -503.99,0.03l-27.31 -0.87 -13.33 -8.67 -9.02 -0.11 -8.7 -11.11 -12.89 -8.58 -10.28 -10.07 -9.59 -11.52 -21.88 -45.88 -6.53 -20.93 -1.2 -31.49zm-2079.67 -1112.25l-1.24 -31.73 11.49 -26.11 -1.04 -19.33 9.26 -13.34 1.55 -9.59 9.2 -10.09 9.87 -11.83 19.74 -19.07 12 -10.18 7.07 -1.14 13.47 -9.51 13.65 4.84c46.86,-24.88 253.07,-22.07 305.53,-4.74l25.57 1.29 14.6 9.58 18.96 8.89 8.49 12.49 11.34 9.8 10.56 18.44 10.81 12.98 0.23 5.45 9.13 17.24 -2.04 8.53c18.46,32.98 18.41,44.6 0.85,78l3.91 13.58 -13.98 17.68 1.4 9.17 -9.17 13.71c0.4,14.45 3.7,10.47 -11.38,10.47l-9.2 8.4 -10.26 11.12 -12.89 9.25 -5.66 0.87 -16.47 8.59 -24.78 1.13c-52.55,16.34 -240.34,15.91 -293.82,1.28l-25.54 -1.81 -12.31 -9.38 -7.53 -1.7 -11.61 -8.74 -10.55 -12.13 -8.78 -8.08 -11.35 -10.78 -9.51 -10.28 -1.03 -9.44 -9.35 -12.96 -0.49 -19.08 -8.7 -21.74zm3194.36 -615.86l1.59 -27.18 9.41 -11.88 -0.18 -7.88 10.67 -11.32 11.71 -10.01 8.8 -9.51 9.66 -12.66 26.73 -10.63 16.33 -8.33 354.7 0.82 15.16 8.5 57.95 50.18c17.06,0 11.35,-3.43 10.14,16.44l1.47 14.27 9.91 23.81 -0.07 37.65 -10.7 22.9 -0.9 15.65 -8.18 15.82c0.58,15.11 4.42,11.66 -10.14,11.66l-20.31 17.61 -10.61 11.54 -30.5 8.97 -24.96 9.29 -330.08 -1.65 -15.62 -7.22 -8.84 -1.13 -10.41 -9.67 -20.65 -10.69 -10.35 -9.11 -10.23 -19.53 -10.01 -11.08 -1.67 -8.38 -8.28 -12.27 -0.51 -20.66 -1.03 -44.32zm-3247.41 -19.98l0.93 -15.03 8.38 -15.22 0.51 -8.69 10.93 -10.57 28.26 -30.09c0,-15.34 -3.72,-11.08 11.97,-12.04l31.45 -7.36 20.47 -10.43 1368.5 1.17 17.41 7.61 26.27 10.97 10.61 11.34 10.92 10.02 11.53 8.59 9.53 13 0.9 4.9 9.85 14.67 -1.22 8.65 11.89 21.16 -0.41 62.1 -11.98 20.21 2.27 8.44c0.21,17.33 4.98,13.82 -10.81,13.82l0.28 6.67 -11.9 10.33 -9.2 11.62 -11.82 8.49 -7.21 1.88 -12.19 9.94 -7.99 0.63 -15.77 8.31 -1406.13 -1.17 -14.8 -8.38 -8.01 -0.64 -8.68 -11.37 -22.54 -18.59 -11.97 -11.72 -9.46 -19.26 -9.97 -9.91 0.23 -20.4c-15.92,-34.08 -14.58,-29.13 -1.03,-63.65zm3391.2 -462.38c1.49,20.05 7.26,16.64 -9.88,16.64l0.39 4.52c1.14,19.49 6.43,15.64 -11.29,15.64l-28.32 28.2 -11.23 12.18 -27.64 9.12 -19.28 7.35 -1701.1 0.11 -18.63 -7.23 -27.8 -9.27 -11.47 -12.18 -27.57 -31.93 -10.18 -8.91 -1.2 -9.32 -9.64 -11.48 -1.99 -16 -6.62 -20.36 -0.37 -39.74 6.54 -20.43 2.01 -15.02 9.61 -11.78 0.01 -9.96 11.9 -9.11 27.95 -31.08 12.17 -10.1 1770.07 -9.3 14.32 9.46 4.88 1.28 10.88 10.18 13.35 8.14 10.15 10.32 10.83 11.42 0.71 5.43 10.48 13.66 6.95 32.01c16.67,34.94 14.46,30.03 2.68,65.85l-1.67 21.69zm-1484.39 -2178.4l-78.49 0.45 -38.9 7.96 -48.16 0.67 -31.76 10.07 -55.23 2.13 -25.56 8.32 -22.87 -1.33 -26.19 12.3 -30.75 0.08 -24.72 9.14 -27.24 0.85 -21.04 10.96 -21.52 -1.05 -19.19 11.38 -17.2 0.46 -18.49 7.05 -18.98 0.91 -18.75 11.43 -15.36 1.09 -18.79 6.85 -22.27 3.95 -17.85 7.6 -12.01 2.97 -18.11 7.58 -13.58 2.37 -16.08 8.3 -9.61 -0.81 -18.5 12.65 -7.96 -0.95 -17.8 7.61 -12.96 2.99 -16.46 9.02 -5.36 -0.06 -16.92 8.44 -13.04 3.19 -15.65 8.39 -35.72 12.03 -16 9.68 -3.53 0.37 -16.34 8.63 -5.78 1.09 -14.65 8.95 -55.91 23.2 -13.57 9.6 -6.47 0.55 -14.92 9.3 -5.12 0.7 -15 9.72 -6.7 0.21 -12.47 10.3 -23.18 7.53 -10.84 10.19 -28.29 10.8 -12.69 10.39 -4.88 1.39 -13.93 10.21 -6.2 0.78 -12.43 10.54 -7.53 0.49 -12.67 10.82 -21.19 6.84 -10.17 12.24 -21.1 8.86 -11.56 10.53 -18.29 8.97c0,15.09 3.62,10.79 -11.96,11.88l-6.68 0.64 -12.96 9.39 -10.52 10.02 -19.94 9.57 -9.83 11.4 -20.28 9.72 -12.35 9.69 -9.45 10.05 -18.95 10.71 -11.35 11.25 -29.2 19.38c0,15.54 4.06,12.09 -10.92,11.61l-11.32 10.44 -29.45 19.28 -10.22 11.38 -9.79 10.68c0.92,14.86 4.44,11.47 -10.34,10.41l-11.73 8.66 -8.93 11.59 -8.08 11.11c587.51,35.45 1190.34,-11.2 1781.73,18.74l25.45 1.28 16.45 8.4 6.56 0.04 12.51 10.16 18.58 10.89 10.64 11.01 10.38 18.62 10.7 10.97 -0.16 8.54 9.08 15.11 -2.72 11.88c22.12,32.9 21.51,52.23 1.35,85.77l2.01 8.74 -8.4 17.63 -11.66 25.84 -10.91 10.87 -9.96 11.7 -6.72 0.35 -12.82 10.94 -36.63 3.43c-40.64,26.88 -136.89,13.85 -188.23,15.1l-37.35 0.72 -19.58 7.09 -17.35 9.9c17.79,0 11.83,-3.6 10.68,17.14l12.12 42.41c13.08,35.89 15.61,38.46 -3.09,73.24l-1.3 18.98 -6.34 15.84 -11.41 9.6 -18.2 20.01c0,15.18 3.77,11.09 -11.44,12.15l-33.07 5.71c-145.38,30.66 -574.12,15.2 -743.53,11.26l-14.28 -8.08 -25.89 -11.38 -13.5 -10.96 -19.11 -21.43 -11.13 -7.87 -1.39 -9.29 -7.65 -13.44 -2.58 -15.26 -7.75 -16.77 9.08 -59.22 -0.49 -19.29 9.69 -12.07 1.77 -5.93 9.5 -15.94 -17.83 -9.34 -16.33 -7.25 -931.13 -2.33 -9.87 10.78 -9.6 11.01 -11.88 8.7 -29.05 42.86 -10.27 9.92 -11.3 10.37 -11.34 17.85 -8.95 11.76c0.43,14.78 3.83,10.75 -11.55,10.75l-17.74 30.73 -10.37 11.48 -10.58 10.67 -9.98 17.91 -12.57 11.68 -0.59 6.2c0.39,16.95 4.93,13.37 -10.82,13.42l-349.07 3.66 -19.56 7.94 -26.47 9.62 -11.46 10.73 -10.9 9.53 -10 11.69 -8.48 28.82 -11.71 21.6 2.04 46.1 6.41 19.49 10.89 25.95 11.63 13.48 18.39 17.56c16.24,1.56 12.44,-3.02 12.44,12.78l5.52 -0.63 17.57 8.74 18.85 -0.63c774.69,7.32 1571.53,-21.59 2342.49,13.17l20.17 -0.81c15.47,-1.04 12.2,-5.07 12.2,9.4l20.86 9.55 9.79 11.56 12.26 8.21c15.95,-0.8 13.44,-5.11 11.05,9.61l7.48 14.82 1.17 4.68c16.19,0 10.94,-3.34 9.9,15.19l1.98 13.66 6.92 19.15 2.5 66.93 -12.88 21 1.72 7.61 -10.36 16.14 -1.07 2.92 -8.83 14.12c0.65,14.78 4.4,11.65 -9.85,10.76l-12.3 8.43 -9.17 11.99 -6.72 0.83 -13.9 9.44 -6.8 0.34 -14.61 9.06 -23.84 -3c-424.71,20.67 -850.73,13.47 -1275.88,12.78 -432.07,-0.71 -864.33,-0.77 -1296.41,-0.56l-28.28 -0.63 -15.91 14.74 -32.98 28.63 -10.06 11.14 -0.73 5.79 -7.9 16.7 18.24 108.61 9.6 12.8 10.11 10.18 13.12 9.43 30.41 9.15c365.79,10 781.72,-25.24 1137.83,10.69l26.53 1.82 14.49 9.22 18.77 9.61 11.51 9.22 10.1 10.31 10.56 11.04 17.9 52.82c17.85,33.19 16.94,36.24 1.11,70.15l-0.35 17.77 -8.24 16.1 -0.39 7.43 -10.91 11.41 -40.22 37.86c0,16.25 3.36,10.97 -15.25,10.09l-12.46 2.77 -18.86 6.76 -946.54 2.8c0,19.95 6.03,16.8 -10.17,16.8l-2.61 70.92 -7.36 41.54 -3.31 280.02 12.42 79.96 -1.89 45.16 10.78 42 -1.17 58.53 13.67 36.28 -2.18 23.27 8.92 27.16 1.99 33.28 9.29 25.96 -1.06 19.13 10.03 23.38 2.65 33.3 10.34 24.29 -0.43 17.14 11.51 22.85 9.88 47.61 7.02 19.38 1.51 16.63 11.42 19.92 0.28 15.36 8.28 19.35 2.04 11.97 8.73 18.75 1.47 13.39 7.38 18.3 3.73 10.59 7.56 17.55 2.74 13.35 8.8 17.83 -1.43 6.86 14.25 18.83 -2.04 7.51 9.05 16.71 0.45 6.35 8.26 17 12.51 33.2 8.85 16.38 1.14 4.61 8.56 16.92 -1.06 7.8 15.54 15.62 -1.8 9.43 10.78 14.47 0.42 5.43 9.44 16.63 0.28 4.68c16.2,0 11.48,-3.7 11.48,13.7l3425.77 1.45 19.28 7.82 13.76 1.38c19.01,-1.39 15.39,-6.6 15.39,10.43l47.12 52.12 10.45 11.19 -0.13 7.17c15.59,0 10.34,-3.23 10.17,14.89l-0.59 17.29c18.43,36.21 16.27,46.83 1.76,84.46l-2.14 23.34 -8.65 17.84 -0.52 3.51c0.04,17.76 5.06,14.33 -10.81,14.33l-41.3 39.85 -9.35 11.31 -32.84 7.4 -26.3 13.87 -3421.17 -0.21 -18.3 7.77 -24.46 11.09 -12.05 10.46 -9.38 13.24 -2.05 4.78 -8.1 15.39 0.99 11.01 -2.74 61.84 1.87 15.48 8.53 14.64 0.2 6.91c15.06,0 10.39,-3.28 10.12,13.48l11.76 7.72c13.92,-1.41 10,-4.29 10.19,10.34l9.42 10.71 28.4 10.47 17.93 8.24 360.53 3.61 14.07 9.83 50.42 59.07 11.56 10.07 10 10.68 9.93 10.58 10.93 9.45 9.3 11.28 10.85 9.69 10.4 11.37 102.21 89.8 9.65 12.13 9.99 10.57c15.69,0.05 12.37,-4.23 12.37,10.36l27.84 21.51 11.66 8.56 9.77 11.66 30.14 19.12 10.16 10.98 10.42 11.14 31.78 18.5 9.17 11.26 12.79 9.35 7.3 0.92 9.55 11.1 12.71 9.78 19.68 8.6 10.53 12.16 20.21 9.76 10.72 9.38 11.44 10.1 6.99 0.87 12.26 10.28 20.82 8.85 8.73 11.24 10.8 0.9 10.57 9.19 12.04 9.93 5.23 1.02 13.68 10.48 8.67 -0.28 9.41 11.47 22.18 8.34 13.21 9.92 5.7 0.95 14.28 9.17 7.25 1.43 13.07 9.49 6.26 1.59 12.42 9.09 8.15 1.67 12.32 8.61 8.05 1.5 11.84 9.55 8.18 0.4 14.96 8.8 5.71 1.2 13.13 8.85 7.76 1.36 14.46 8.03 7.36 0.9 15.16 8.26 12.18 3.61c17.69,-1.37 14.6,-6.4 14.6,8.94l7.11 1.35 15.71 7.75 6.37 1.07 15.47 8.4 14.8 2.61 15.13 8.9 4.63 1.34 15.25 8.5 14.36 3.94 15.96 7.59 36.21 10.86 16.78 8.29 14.11 1.92 15.88 8.38 14.49 3.06 18.01 6.53 12.15 3.76 17.79 6.49 13.16 2.99 18.27 7.25 12.96 2.43 18.3 7.01 16.66 1.8 20.42 11.01 18.64 -0.27 23.77 9.59 27.52 1.29 20.77 10.04 20.81 -1.19 20.3 11.1 28.67 0.56 23.26 9.28 20.61 -0.46 19.63 1.25 20.75 9.73 38.47 0.78 31.68 9.83 34.16 -1.66 44.92 12.81 35.49 -1.37 51.75 10.57 82.32 -0.92 243.66 -0.15 111.21 0.79 40.54 -10.63 45.04 0.96 40.05 -11.88 38.31 0.29 28.64 -7.71 34.76 -2.4 25.51 -8.7 44.23 -1.55 22.43 -10.17 20.6 0.62 22.62 -10.25 26.56 -1.04 24.82 -9.45 19.48 0.48 19.78 -10.87 20.82 0.22 19.38 -10.29 17.99 -1.32 18.27 -7.19 21.31 -4.11 18.57 -7.13 12.78 -2.45 17.91 -7 13.28 -3.15 17.29 -7.2 12.64 -3.5 17.85 -7.67 12.97 -2.54 16.75 -7.84 6.72 -0.85 16.52 -7.6 8.85 0.22 16.69 -13.62 10.48 1.43 15.06 -8.29 13.57 -3.2 15.66 -7.77 7.98 -1.22 13.65 -8.85 13.19 -3.45 13.37 -9.51 29.3 -10.14 14.24 -9.19 4.58 -0.8 14.76 -8.58 10.49 -0.52 11.42 -8.75 34.96 -14.29 13.31 -9.14 65.08 -28.89 9.53 -8.95 7.56 -1.74 12.07 -8.75 8.42 -1.4 10.17 -10.94 41.84 -19.9 10.3 -10.88 22.25 -8.21 9.67 -10.12 8.62 -2.09 9.14 -10.91 22.01 -9.23 10.61 -10.89 19.23 -9.67 10.08 -11.04 20.62 -9.82 10.97 -10.25 11.49 -9.3 7.36 -1.48 10.87 -10.3 10.98 -10.02 31.35 -18.96 10.15 -11.79 18.88 -9.55 10.98 -10.96 11.6 -10.63 40.4 -28.94 9.99 -11.39 9.78 -11.79 62.6 -48.48 8.9 -11.98 11.15 -9.41 10.27 -10.29 10.95 -9.39 10.35 -10.61 9.97 -9.87 10.56 -10.35 9.58 -10.66 11.57 -9.44 8.71 -11.45 10.35 -10.03 10.59 -9.79 11.07 -9.46 9.74 -10.69 11.16 -9.72 68.56 -84.25 12.91 -8.68 38.95 -52.11 12.2 -8.36 10.18 -11.31 18.51 -31.76 12.1 -7.82 19.58 -33.2 11.4 -8.76 11.19 -20.2 9.81 -7.94 18.12 -35.12 11.11 -8.98 9.41 -22.08 10.81 -10.16 9.01 -20.38 11.96 -9.09 9.17 -21.97 11.89 -8.95 0.59 -9.91 9.56 -8.32 9.47 -22.52 10.13 -11.85 0.36 -10.05 10.59 -7.27 8.92 -22.77 10.29 -12.92 1.4 -4.29 9.57 -14.06 0.52 -8.61 10.07 -11.13 8.5 -20.82 10.42 -12.23 0.99 -7.62 9.83 -11.94 296.34 -39.77 21.52 -9.83 10.15 0.02c0,-15.59 -3.1,-10.34 15.14,-8.96l5.24 -0.22c0,-15.86 -3.88,-11.58 12.23,-12.28l17.95 -20.17 12.31 -10.66 10.53 -27.89 7.93 -14.7 0.15 -68.12 -8.81 -13.94 -0.44 -8.6 -8.85 -12.21 -0.42 -9.17 -11.86 -8.63 -9.45 -10.89 -11.49 -10.65 -27.04 -9.93 -17.37 -8.52 -2622.81 -4.78 -20.92 -5.78 -11.93 -3.33 -14.99 -8.81 -7.24 -0.69 -12.45 -8.96 -9.46 -10.95 -10.84 -10.29 -10.97 -9.81 -17.9 -53.81c-19.23,-32.26 -17.9,-35.43 -1.97,-68.72l0.38 -18.72 9.25 -13.87 8.86 -18.82 12.64 -8.09 20.28 -21.08 10.56 -10.86 9.52 -0.41 13.89 -8.51 12.69 1.29c420.68,-23.49 842.89,-13.13 1264.19,-13.22 430.42,-0.1 860.81,1.75 1291.21,-0.59l0.79 -16.91 7.81 -18.29 0.97 -28.78 10.51 -19.89 1.69 -35.69 9.35 -22.92 1.76 -38.22 8.68 -22.23 9.75 -106.76 10.59 -41.03 -1.17 -74.65 1.36 -238.8 -1.05 -71.23 -7.21 -37.52 -2.11 -75.64 -10.24 -30.54 0.57 -35.25 -10.75 -27.04 -0.31 -40.73 -8.77 -21.2 -11.83 -81.65 -9.82 -20.59 -0.31 -22.9 -9.9 -19.67 0.19 -21.64 -10.61 -18.26 0.46 -21.15 -12.55 -17.04 0.73 -10.78 -6.49 -17.67 -1.72 -18.31 -13.3 -15.63 1.37 -10.44c-16.51,0 -10.55,3.05 -8.18,-16.99l-2.41 -13.57 -8.17 -15.37 -1.87 -19.83c-273.15,0.15 -546.18,2.74 -819.39,2.06 -257.25,-0.63 -526.5,8.14 -781.7,-13.66l-16.69 2.9 -13.56 -8.45 -7.24 -0.97 -11.24 -11.11 -40.18 -39.8 -10.52 -11.01 -0.55 -8.56 -7.84 -15.89 -1.18 -18.82c-15.17,-31.99 -13.39,-27.74 -0.87,-60.04l1.42 -28.98 8.88 -10.51 1.01 -11.21 9.06 -9.64 10.92 -19.74 10.67 -11.38 17.83 -10.07c0,-15.2 -3.41,-10.7 13.13,-10.42l6.74 0.14 15.96 -8.17 30.16 0.42c274.88,-20.44 551.73,-12.43 827.28,-12.2 275.9,0.24 551.42,1.6 827.34,-1.17l22.83 1.41 22.03 -11.24 8.9 1.6 12.85 -10.12 27.63 -32.53 9.76 -12.42 3.27 -13.18 7.53 -16.25 -1.22 -56.3 -7.4 -14.44 -1.37 -8.77 -9.38 -12.15 -9.4 -22.42 -11.24 -9.08 -19.88 -8.27c-16.22,-0.49 -12.83,4.04 -12.83,-10.89l-8.81 1.58 -20.72 -11.96 -368.47 -8.8 -10.87 -10.87 -9.17 -20.55 -11.78 -9.91 -8.51 -21.4 -10.49 -9.67 -10.87 -20.37 -10.11 -10.66 -9.46 -11.2 -11.02 -19.54 -10.01 -10.7 -9.33 -9.49 -19.88 -32.48 -11.51 -9.72 -9.4 -8.98 -20.51 -31.94 -13.9 -8.95 -57.43 -61.62c-44.66,-14.86 -26.14,-10.32 -49.35,-45.71 -12.33,-18.8 -24.12,-23.01 -26.61,-30.06l-79.98 -88.06 -9 -11.39 -10.94 -9.67 -10.13 -10.37 -9.12 -12.02 -73.68 -57.32 -9.08 -13.95 -42.06 -29.53 -8.21 -12.54 -42.81 -28.01 -8.71 -12.04 -20.35 -9.3 -7.64 -12.49 -34.98 -18.03 -9.08 -10.8 -21.71 -9.05 -8.74 -11.41 -21.69 -9.27 -10.96 -10.82 -20.46 -9.55 -8.95 -10.77 -9.21 -2.39 -10.67 -8.07 -13.65 -8.55 -7.92 -0.92 -10.46 -11.25 -8.86 -1.29 -9.73 -9.05 -13.48 -8.92 -7.28 -1.46 -12.77 -9.85 -6.14 -1.37 -12.4 -9.36 -42.16 -18.87 -13.09 -9.19 -7.74 -0.93 -12.4 -10.05 -6.8 -0.6 -13.96 -9.44 -5.77 -1.49 -12.88 -9.5 -7.65 -1.44 -14.03 -8.58 -6.19 -0.92 -15.35 -8.94 -4.49 -0.55 -16.43 -9.25 -5.64 -0.56 -15.13 -9.1 -13.4 -3.79 -14.26 -8.79 -5.69 -1.25 -14.74 -8.02 -10.3 -0.26 -11.96 -9.33 -13.82 -5.01 -13.44 -6.98 -8.9 -1.19 -15.82 -7.81 -8.23 0.94 -17.81 -13.43 -8.77 0.73 -16.08 -8.59 -13.05 -4.14 -15.66 -7.36 -10.22 1.03 -16.69 -12.31 -10.97 0.26 -17.15 -7.04 -16.39 -1.81 -18.31 -12.43 -12.8 3.41 -17.44 -12.75 -19.01 -0.61 -18.19 -7.63 -16.63 -0.63 -19.34 -11.1 -18.81 -0.7 -17.14 -7.23 -62.39 -15.03 -18.52 -6.26 -25.03 -2.3 -23.15 -9.44 -20.17 -0.34 -22.77 -9.42 -38.66 0.3 -27.48 -11.62 -34.29 0 -25.99 -7.21 -53.85 -2.76 -37.13 -8.32 -69.63 -0.42 -68.33 -12.03 -202.65 1.16 -84.2 10.54z"/>
   <path class="fil1 str0" d="M7526.17 11136.5c-591.39,-29.94 -1194.22,16.71 -1781.73,-18.74 266.65,37.32 593.91,18.66 867.83,18.26 304.63,-0.44 609.26,0.78 913.9,0.48z"/>
   <path class="fil2 str0" d="M7549.9 11418.67l-188.23 15.1c51.34,-1.25 147.59,11.78 188.23,-15.1z"/>
   <path class="fil3 str0" d="M9390.95 11352.05l-0.69 -10.57 -12.04 -9.29c-14.34,0.23 -11.07,3.84 -10.42,-10.23l-9.86 -10.69 -9.77 -10.76 -10.55 -10 -11.32 -10.45 -11.31 -3.78c2.49,7.05 14.28,11.26 26.61,30.06 23.21,35.39 4.69,30.85 49.35,45.71z"/>
   <path class="fil4 str0" d="M7644.99 11329.17c20.16,-33.54 20.77,-52.87 -1.35,-85.77l1.35 85.77z"/>
   <path class="fil5 str0" d="M7342.37 13777.02l-1.97 -68.72c-15.93,33.29 -17.26,36.46 1.97,68.72z"/>
   <path class="fil4 str0" d="M5012.24 14643.98l2.74 -61.84c-16.99,29.08 -16.98,30.44 -2.74,61.84z"/>
   <path class="fil6 str0" d="M8765.23 12637.74c11.78,-35.82 13.99,-30.91 -2.68,-65.85l2.68 65.85z"/>
   <path class="fil7 str0" d="M5373.39 13185.46l-1.03 -63.65c-13.55,34.52 -14.89,29.57 1.03,63.65z"/>
   <path class="fil8 str0" d="M8211.59 12107.3l-0.87 -60.04c-12.52,32.3 -14.3,28.05 0.87,60.04z"/>
   <polygon class="fil9 str0" points="6378.53,11563.34 6388.12,11563.34 6387.61,11504.12 "/>
   <path class="fil10 str0" d="M7298.07 11468.62c1.15,-20.74 7.11,-17.14 -10.68,-17.14 0.53,20.32 -5.68,17.14 10.68,17.14z"/>
   <path class="fil11 str0" d="M4851.49 12755.88c-17.86,0.59 -12.38,-3.32 -10.17,16.8 16.2,0 10.17,3.15 10.17,-16.8z"/>
   <path class="fil10 str0" d="M8572.63 14190.04c0,-17.03 3.62,-11.82 -15.39,-10.43 0,15.55 -3.15,10.01 15.39,10.43z"/>
   <path class="fil12 str0" d="M5098.43 14168.96c0,-17.4 4.72,-13.7 -11.48,-13.7 -0.64,17.24 -5.03,13.19 11.48,13.7z"/>
   <path class="fil6 str0" d="M8640.24 14275.41c0.17,-18.12 5.42,-14.89 -10.17,-14.89 -0.54,18.21 -5.73,14.89 10.17,14.89z"/>
   <path class="fil13 str0" d="M6951.33 13215.21c-15.6,0 -10.79,-3.44 -10.81,13.82 15.79,0 11.02,3.51 10.81,-13.82z"/>
   <path class="fil5 str0" d="M4870.48 11907.01c0,-15.8 3.8,-11.22 -12.44,-12.78 0,16.67 -4.18,12.44 12.44,12.78z"/>
   <path class="fil1 str0" d="M5267.15 11654.64c-15.47,0 -10.82,-3.46 -10.82,13.42 15.75,-0.05 11.21,3.53 10.82,-13.42z"/>
   <path class="fil14 str0" d="M5433.34 13030.17c-15.69,0.96 -11.97,-3.3 -11.97,12.04 16.33,1.16 11.97,4.78 11.97,-12.04z"/>
   <path class="fil2 str0" d="M5032.96 14694.49c0.27,-16.76 4.94,-13.48 -10.12,-13.48 -0.2,17.27 -5.16,14.33 10.12,13.48z"/>
   <path class="fil6 str0" d="M10046.03 11690.17c0,-14.83 3.34,-10.26 -12.83,-10.89 0,14.93 -3.39,10.4 12.83,10.89z"/>
   <path class="fil10 str0" d="M7341.24 11975.18c2.39,-14.72 4.9,-10.41 -11.05,-9.61 -0.55,15.33 -4.16,12.05 11.05,9.61z"/>
   <path class="fil9 str0" d="M9143.97 13238.43c-14.23,-1.2 -9.79,-3.97 -10.14,11.66 14.56,0 10.72,3.45 10.14,-11.66z"/>
   <path class="fil15 str0" d="M5783.52 11075.99c-14.78,-0.81 -11.37,-4.31 -10.34,10.41 14.78,1.06 11.26,4.45 10.34,-10.41z"/>
   <path class="fil2 str0" d="M5926.62 13832.66c-14.39,-0.95 -10.39,-4.21 -11.38,10.47 15.08,0 11.78,3.98 11.38,-10.47z"/>
   <path class="fil16 str0" d="M7339.77 12171.4c-14.23,-0.85 -10.5,-3.99 -9.85,10.76 14.25,0.89 10.5,4.02 9.85,-10.76z"/>
   <path class="fil16 str0" d="M9378.22 11332.19c0.34,-14.31 3.84,-10.93 -10.42,-10.23 -0.65,14.07 -3.92,10.46 10.42,10.23z"/>
   <path class="fil17 str0" d="M5054.91 14712.55c-0.19,-14.63 3.73,-11.75 -10.19,-10.34 -1.46,13.86 -4.34,9.94 10.19,10.34z"/>
   <path class="fil8 str0" d="M8754.07 12680.59l-11.29 15.64c17.72,0 12.43,3.85 11.29,-15.64z"/>
   <path class="fil9 str0" d="M4993.75 13936.83l-8.8 -17.83c-1.65,20.91 -7.96,17.83 8.8,17.83z"/>
   <path class="fil8 str0" d="M8763.56 12659.43l-9.88 16.64c17.14,0 11.37,3.41 9.88,-16.64z"/>
   <polygon class="fil1 str0" points="6980.88,15584.1 6960.13,15574.37 6960.13,15584.07 "/>
   <path class="fil1 str0" d="M9152.44 13108.33c1.21,-19.87 6.92,-16.44 -10.14,-16.44l10.14 16.44z"/>
   <path class="fil9 str0" d="M5076.81 14128.52l-10.78 -14.47c-2.7,18.57 -7.15,14.47 10.78,14.47z"/>
   <path class="fil9 str0" d="M5013.58 13986.74l-9.05 -16.71c-1.75,19.91 -7.59,16.71 9.05,16.71z"/>
   <path class="fil2 str0" d="M5086.67 14150.58l-9.44 -16.63c-1.28,19.84 -7.13,16.63 9.44,16.63z"/>
   <path class="fil15 str0" d="M9942.31 12296.37l-8.18 -16.99c-2.37,20.04 -8.33,16.99 8.18,16.99z"/>
   <polygon class="fil12 str0" points="6960.13,15584.07 6960.13,15574.37 6940.5,15573.12 "/>
   <path class="fil9 str0" d="M6543.95 15470.55l-16.78 -8.29c0,16.36 -3.04,10.47 16.78,8.29z"/>
   <path class="fil12 str0" d="M6430.1 10676.02c-19.25,-1.06 -16,-6.66 -16,9.68l16 -9.68z"/>
   <path class="fil9 str0" d="M8561.63 10726.91c0,-16.16 3.11,-10.37 -16.43,-9.25l16.43 9.25z"/>
   <path class="fil10 str0" d="M5844.6 12733.46l-15.25 10.09c18.61,0.88 15.25,6.16 15.25,-10.09z"/>
   <path class="fil8 str0" d="M7359.79 12009.87c1.04,-18.53 6.29,-15.19 -9.9,-15.19l9.9 15.19z"/>
   <path class="fil2 str0" d="M7646.36 11231.52l-9.08 -15.11c-1.61,18.3 -6.79,15.11 9.08,15.11z"/>
   <path class="fil6 str0" d="M8630.1 14421.85l-10.81 14.33c15.87,0 10.85,3.43 10.81,-14.33z"/>
   <path class="fil4 str0" d="M6277.81 10748.09c-18.18,-0.63 -15,-5.89 -15,9.72l15 -9.72z"/>
   <path class="fil1 str0" d="M10111.27 14140.81c-18.24,-1.38 -15.14,-6.63 -15.14,8.96l15.14 -8.96z"/>
   <path class="fil9 str0" d="M8539.56 10717.1c0,-15.53 3.09,-10.26 -15.13,-9.1l15.13 9.1z"/>
   <path class="fil9 str0" d="M8755.6 12539.88l-10.48 -13.66c-0.65,17.16 -5.27,13.66 10.48,13.66z"/>
   <path class="fil2 str0" d="M6297.85 10738.09c-17.98,-0.72 -14.92,-5.95 -14.92,9.3l14.92 -9.3z"/>
   <path class="fil18 str0" d="M7599.35 11404.3c-16.65,-1.07 -12.82,-5.19 -12.82,10.94l12.82 -10.94z"/>
   <polygon class="fil1 str0" points="6386.28,11580.11 6388.12,11563.34 6378.53,11563.34 "/>
   <path class="fil15 str0" d="M6366.17 15399.95c0,-15.34 3.09,-10.31 -14.6,-8.94l14.6 8.94z"/>
   <path class="fil2 str0" d="M6950.78 13094.65l-9.85 -14.67c-0.18,17.79 -5.36,14.67 9.85,14.67z"/>
   <path class="fil12 str0" d="M6123.67 10830.64c-16.44,-0.97 -12.67,-5.06 -12.67,10.82l12.67 -10.82z"/>
   <path class="fil19 str0" d="M6099.86 15267.1l-13.68 -10.48c0,15.33 -3.36,10.55 13.68,10.48z"/>
   <path class="fil8 str0" d="M10128.74 14128.31c-16.11,0.7 -12.23,-3.58 -12.23,12.28l12.23 -12.28z"/>
   <path class="fil20 str0" d="M8283.64 11935.31c-16.54,-0.28 -13.13,-4.78 -13.13,10.42l13.13 -10.42z"/>
   <path class="fil2 str0" d="M6317.89 10727.94c-16.79,-0.8 -13.57,-5.44 -13.57,9.6l13.57 -9.6z"/>
   <path class="fil16 str0" d="M5752.52 11106.65c-16.26,-1.35 -13.08,-4.67 -8.08,11.11l8.08 -11.11z"/>
   <path class="fil9 str0" d="M8497.46 15398.6l-13.37 9.51c16.64,1.12 13.37,5.62 13.37,-9.51z"/>
   <path class="fil18 str0" d="M9716.82 14290.05l-10.29 12.92c15.01,0 10.58,3.37 10.29,-12.92z"/>
   <path class="fil4 str0" d="M5280.31 11636.76c-15.59,0 -11.38,-3.89 -12.57,11.68l12.57 -11.68z"/>
   <path class="fil12 str0" d="M6256.11 10758.02c-15.99,-0.75 -12.47,-4.87 -12.47,10.3l12.47 -10.3z"/>
   <path class="fil9 str0" d="M8714.46 12724.43c-15.24,0.39 -11.23,-3.42 -11.23,12.18l11.23 -12.18z"/>
   <path class="fil9 str0" d="M8630.52 15337.19l-13.31 9.14c16.4,0.92 13.31,5.47 13.31,-9.14z"/>
   <path class="fil12 str0" d="M9686.66 14343.06l-10.13 11.85c15.24,0 11.56,3.67 10.13,-11.85z"/>
   <path class="fil2 str0" d="M6089.81 10848.3c-14.7,-1.03 -10.17,-3.93 -10.17,12.24l10.17 -12.24z"/>
   <path class="fil11 str0" d="M7587.14 11156.38l-12.51 -10.16c0,14.86 -3.4,10.64 12.51,10.16z"/>
   <path class="fil17 str0" d="M6028.69 10888.9l-11.96 11.88c15.58,-1.09 11.96,3.21 11.96,-11.88z"/>
   <path class="fil19 str0" d="M6143.63 10819.61c-15.86,-0.05 -12.43,-4.31 -12.43,10.54l12.43 -10.54z"/>
   <path class="fil21 str0" d="M8220.77 14805.36c0.41,-15.71 4.51,-12.22 -10.43,-12.22l10.43 12.22z"/>
   <path class="fil22 str0" d="M5855.22 11012.6l-10.92 11.61c14.98,0.48 10.92,3.93 10.92,-11.61z"/>
   <polygon class="fil1 str0" points="6481.81,11677.82 6481.81,11668.11 6467.53,11669.74 "/>
   <path class="fil14 str0" d="M8661.15 10778.42c0,-14.71 3.35,-10.51 -12.4,-10.05l12.4 10.05z"/>
   <path class="fil14 str0" d="M6908.78 12736.69c0,-15.13 3.74,-10.99 -11.47,-12.18l11.47 12.18z"/>
   <path class="fil2 str0" d="M9757.3 14218.91l-10.42 12.23c14.72,0 10.55,3.41 10.42,-12.23z"/>
   <path class="fil2 str0" d="M5742.87 15010.46c0,-14.59 3.32,-10.31 -12.37,-10.36l12.37 10.36z"/>
   <path class="fil16 str0" d="M5340.53 11555.22l-11.55 10.75c15.38,0 11.98,4.03 11.55,-10.75z"/>
   <path class="fil17 str0" d="M7287.28 11936.25c0,-14.47 3.27,-10.44 -12.2,-9.4l12.2 9.4z"/>
   <path class="fil13 str0" d="M8744.41 12520.79l-10.83 -11.42c-0.16,15.04 -3.96,11.42 10.83,11.42z"/>
   <path class="fil12 str0" d="M8641.27 13238.5c1.67,-14.83 4.96,-11.08 -10.01,-11.08l10.01 11.08z"/>
   <path class="fil17 str0" d="M6940.8 13235.7c-15.23,0 -11.87,-4.07 -11.9,10.33l11.9 -10.33z"/>
   <path class="fil16 str0" d="M6908.05 13043.47l-10.61 -11.34c0,15.04 -3.92,11.64 10.61,11.34z"/>
   <path class="fil8 str0" d="M5844.3 11024.21c-14.88,-0.45 -11.32,-4.17 -11.32,10.44l11.32 -10.44z"/>
   <path class="fil6 str0" d="M8252.68 11955.8l-10.67 11.38c14.52,0 10.67,3.52 10.67,-11.38z"/>
   <path class="fil1 str0" d="M7626.94 11381.38c-14.72,0 -11.17,-3.71 -10.91,10.87l10.91 -10.87z"/>
   <path class="fil22 str0" d="M5885.7 12519.92l-10.56 -11.04c-0.22,14.6 -3.88,11.04 10.56,11.04z"/>
   <path class="fil14 str0" d="M6858.36 12674.35c0.71,-14.79 4.48,-11.48 -9.64,-11.48l9.64 11.48z"/>
   <path class="fil15 str0" d="M9367.8 11321.96c0.63,-14.27 4.15,-10.92 -9.86,-10.69l9.86 10.69z"/>
   <path class="fil22 str0" d="M5793.31 11065.31c-14.08,0 -10.71,-3.48 -9.79,10.68l9.79 -10.68z"/>
   <polygon class="fil5 str0" points="7363.37,10470.49 7279.17,10481.03 "/>
   <polygon class="fil4 str0" points="7634.35,10481.36 7566.02,10469.33 "/>
   <polygon class="fil5 str0" points="7200.68,10481.48 7161.78,10489.44 "/>
   <polygon class="fil21 str0" points="7741.11,10490.1 7703.98,10481.78 "/>
   <polygon class="fil20 str0" points="7113.62,10490.11 7081.86,10500.18 "/>
   <polygon class="fil12 str0" points="7820.95,10500.07 7794.96,10492.86 "/>
   <polygon class="fil12 str0" points="7026.63,10502.31 7001.07,10510.63 "/>
   <polygon class="fil8 str0" points="7882.72,10511.69 7855.24,10500.07 "/>
   <polygon class="fil22 str0" points="6978.2,10509.3 6952.01,10521.6 "/>
   <polygon class="fil19 str0" points="7944.15,10520.81 7921.38,10511.39 "/>
   <polygon class="fil22 str0" points="6921.26,10521.68 6896.54,10530.82 "/>
   <polygon class="fil15 str0" points="7987.47,10530.59 7964.32,10521.15 "/>
   <polygon class="fil23 str0" points="6869.3,10531.67 6848.26,10542.63 "/>
   <polygon class="fil15 str0" points="8031.02,10539.15 8012.5,10532.89 "/>
   <polygon class="fil16 str0" points="6826.74,10541.58 6807.55,10552.96 "/>
   <polygon class="fil8 str0" points="6790.35,10553.42 6771.86,10560.47 "/>
   <polygon class="fil19 str0" points="8110.55,10561.41 8093.41,10554.18 "/>
   <polygon class="fil10 str0" points="6752.88,10561.38 6734.13,10572.81 "/>
   <polygon class="fil4 str0" points="8148.7,10573.21 8129.36,10562.11 "/>
   <polygon class="fil8 str0" points="6718.77,10573.9 6699.98,10580.75 "/>
   <polygon class="fil11 str0" points="8183.52,10581.47 8165.33,10573.84 "/>
   <polygon class="fil2 str0" points="6677.71,10584.7 6659.86,10592.3 "/>
   <polygon class="fil22 str0" points="8219.97,10594.83 8202.53,10582.08 "/>
   <polygon class="fil14 str0" points="6647.85,10595.27 6629.74,10602.85 "/>
   <polygon class="fil22 str0" points="8251.08,10603.85 8232.77,10591.42 "/>
   <polygon class="fil21 str0" points="6616.16,10605.22 6600.08,10613.52 "/>
   <polygon class="fil9 str0" points="8284.62,10612.7 8267.47,10605.66 "/>
   <polygon class="fil13 str0" points="6590.47,10612.71 6571.97,10625.36 "/>
   <polygon class="fil16 str0" points="8312.28,10624.75 8295.59,10612.44 "/>
   <polygon class="fil15 str0" points="6564.01,10624.41 6546.21,10632.02 "/>
   <polygon class="fil1 str0" points="8338.16,10631.08 8322.5,10623.72 "/>
   <polygon class="fil4 str0" points="6533.25,10635.01 6516.79,10644.03 "/>
   <polygon class="fil5 str0" points="8367.29,10643.81 8351.21,10635.22 "/>
   <polygon class="fil1 str0" points="6511.43,10643.97 6494.51,10652.41 "/>
   <polygon class="fil22 str0" points="8393.87,10656.51 8376.06,10643.08 "/>
   <polygon class="fil4 str0" points="6481.47,10655.6 6465.82,10663.99 "/>
   <polygon class="fil5 str0" points="8417.92,10663.38 8402.1,10655.57 "/>
   <polygon class="fil1 str0" points="8440.26,10671.55 8426.82,10664.57 "/>
   <polygon class="fil2 str0" points="8466.04,10685.89 8454.08,10676.56 "/>
   <polygon class="fil13 str0" points="6410.57,10686.07 6394.23,10694.7 "/>
   <polygon class="fil5 str0" points="8491.08,10694.17 8476.34,10686.15 "/>
   <polygon class="fil6 str0" points="6388.45,10695.79 6373.8,10704.74 "/>
   <polygon class="fil15 str0" points="8511.03,10704.21 8496.77,10695.42 "/>
   <polygon class="fil19 str0" points="8581.47,10736.4 8566.12,10727.46 "/>
   <polygon class="fil19 str0" points="8601.69,10745.9 8587.66,10737.32 "/>
   <polygon class="fil11 str0" points="8622.22,10756.84 8609.34,10747.34 "/>
   <polygon class="fil14 str0" points="8641.95,10767.77 8627.99,10758.33 "/>
   <polygon class="fil1 str0" points="6220.46,10775.85 6209.62,10786.04 "/>
   <polygon class="fil9 str0" points="8681.98,10788.54 8668.89,10779.35 "/>
   <polygon class="fil6 str0" points="6181.33,10796.84 6168.64,10807.23 "/>
   <polygon class="fil5 str0" points="6163.76,10808.62 6149.83,10818.83 "/>
   <polygon class="fil24 str0" points="8736.54,10816.77 8724.14,10807.41 "/>
   <polygon class="fil16 str0" points="8755.45,10827.99 8742.68,10818.14 "/>
   <polygon class="fil9 str0" points="8776.21,10838.37 8762.73,10829.45 "/>
   <polygon class="fil1 str0" points="8785.94,10847.42 8776.21,10838.37 "/>
   <polygon class="fil6 str0" points="8805.26,10859.96 8794.8,10848.71 "/>
   <polygon class="fil12 str0" points="8826.83,10869.43 8813.18,10860.88 "/>
   <polygon class="fil16 str0" points="6058.54,10869.4 6046.98,10879.93 "/>
   <polygon class="fil1 str0" points="8837.5,10877.5 8826.83,10869.43 "/>
   <polygon class="fil2 str0" points="8855.66,10890.66 8846.71,10879.89 "/>
   <polygon class="fil9 str0" points="6010.05,10901.42 5997.09,10910.81 "/>
   <polygon class="fil8 str0" points="8887.08,10911.03 8876.12,10900.21 "/>
   <polygon class="fil15 str0" points="5997.09,10910.81 5986.57,10920.83 "/>
   <polygon class="fil6 str0" points="8917.51,10931.71 8908.77,10920.3 "/>
   <polygon class="fil22 str0" points="5966.63,10930.4 5956.8,10941.8 "/>
   <polygon class="fil5 str0" points="8948.3,10951.56 8939.22,10940.76 "/>
   <polygon class="fil4 str0" points="5936.52,10951.52 5924.17,10961.21 "/>
   <polygon class="fil17 str0" points="5924.17,10961.21 5914.72,10971.26 "/>
   <polygon class="fil10 str0" points="8990.92,10982.08 8983.28,10969.59 "/>
   <polygon class="fil20 str0" points="5895.77,10981.97 5884.42,10993.22 "/>
   <polygon class="fil4 str0" points="9019.98,11003.42 9011.27,10991.38 "/>
   <polygon class="fil5 str0" points="9071,11043.97 9062.79,11031.43 "/>
   <polygon class="fil12 str0" points="5803.53,11053.93 5793.31,11065.31 "/>
   <polygon class="fil6 str0" points="9122.14,11087.45 9113.06,11073.5 "/>
   <polygon class="fil15 str0" points="5773.18,11086.4 5761.45,11095.06 "/>
   <polygon class="fil22 str0" points="5761.45,11095.06 5752.52,11106.65 "/>
   <polygon class="fil6 str0" points="7568.07,11146.18 7551.62,11137.78 "/>
   <polygon class="fil19 str0" points="9204.94,11156.79 9195.82,11144.77 "/>
   <polygon class="fil22 str0" points="9215.07,11167.16 9204.94,11156.79 "/>
   <polygon class="fil1 str0" points="7616.36,11178.28 7605.72,11167.27 "/>
   <polygon class="fil16 str0" points="9226.01,11176.83 9215.07,11167.16 "/>
   <polygon class="fil15 str0" points="9235.01,11188.22 9226.01,11176.83 "/>
   <polygon class="fil2 str0" points="7637.44,11207.87 7626.74,11196.9 "/>
   <polygon class="fil25 str0" points="9337.62,11290.51 9326.3,11280.06 "/>
   <polygon class="fil24 str0" points="9348.17,11300.51 9337.62,11290.51 "/>
   <polygon class="fil1 str0" points="9357.94,11311.27 9348.17,11300.51 "/>
   <polygon class="fil2 str0" points="9390.26,11341.48 9378.22,11332.19 "/>
   <polygon class="fil2 str0" points="7647,11337.91 7638.6,11355.54 "/>
   <polygon class="fil1 str0" points="7616.03,11392.25 7606.07,11403.95 "/>
   <polygon class="fil8 str0" points="9462.28,11422.62 9448.38,11413.67 "/>
   <polygon class="fil8 str0" points="5442.79,11431.97 5432.92,11442.75 "/>
   <polygon class="fil13 str0" points="6390.25,11441.55 6373.92,11434.3 "/>
   <polygon class="fil16 str0" points="7324.32,11434.49 7304.74,11441.58 "/>
   <polygon class="fil13 str0" points="5432.92,11442.75 5423.32,11453.76 "/>
   <polygon class="fil2 str0" points="5423.32,11453.76 5411.44,11462.46 "/>
   <polygon class="fil6 str0" points="6408.08,11450.89 6398.58,11466.83 "/>
   <polygon class="fil17 str0" points="9492.19,11463.54 9482.79,11454.56 "/>
   <polygon class="fil21 str0" points="9503.7,11473.26 9492.19,11463.54 "/>
   <polygon class="fil2 str0" points="6396.81,11472.76 6387.12,11484.83 "/>
   <polygon class="fil15 str0" points="5382.39,11505.32 5372.12,11515.24 "/>
   <polygon class="fil8 str0" points="9532.91,11515.23 9523.58,11505.74 "/>
   <polygon class="fil11 str0" points="5372.12,11515.24 5360.82,11525.61 "/>
   <polygon class="fil9 str0" points="9542.92,11525.93 9532.91,11515.23 "/>
   <polygon class="fil17 str0" points="5349.48,11543.46 5340.53,11555.22 "/>
   <polygon class="fil5 str0" points="9563.4,11556.67 9553.94,11545.47 "/>
   <polygon class="fil12 str0" points="9573.51,11567.33 9563.4,11556.67 "/>
   <polygon class="fil11 str0" points="9594.87,11597.37 9584.38,11587.7 "/>
   <polygon class="fil6 str0" points="5311.24,11596.7 5300.87,11608.18 "/>
   <polygon class="fil4 str0" points="6396.51,11608.81 6388.86,11595.37 "/>
   <polygon class="fil2 str0" points="5300.87,11608.18 5290.29,11618.85 "/>
   <polygon class="fil1 str0" points="7305.8,11603.25 7299.46,11619.09 "/>
   <polygon class="fil8 str0" points="6409.03,11625.97 6397.9,11618.1 "/>
   <polygon class="fil4 str0" points="7299.46,11619.09 7288.05,11628.69 "/>
   <polygon class="fil16 str0" points="9615.16,11628.68 9603.38,11618.77 "/>
   <polygon class="fil21 str0" points="6441.64,11658.36 6428.14,11647.4 "/>
   <polygon class="fil8 str0" points="9635.2,11660.1 9624.33,11649.23 "/>
   <polygon class="fil2 str0" points="4907.26,11671.72 4887.7,11679.66 "/>
   <polygon class="fil22 str0" points="10024.39,11680.86 10003.67,11668.9 "/>
   <polygon class="fil14 str0" points="4861.23,11689.28 4849.77,11700.01 "/>
   <polygon class="fil21 str0" points="4849.77,11700.01 4838.87,11709.54 "/>
   <polygon class="fil12 str0" points="10077.15,11707.52 10065.91,11698.44 "/>
   <polygon class="fil12 str0" points="4838.87,11709.54 4828.87,11721.23 "/>
   <polygon class="fil6 str0" points="10095.93,11742.09 10086.55,11729.94 "/>
   <polygon class="fil12 str0" points="10104.7,11765.3 10097.3,11750.86 "/>
   <polygon class="fil17 str0" points="4808.68,11771.65 4820.39,11750.05 "/>
   <polygon class="fil14 str0" points="4817.13,11837.24 4810.72,11817.75 "/>
   <polygon class="fil6 str0" points="10105.92,11821.6 10098.39,11837.85 "/>
   <polygon class="fil2 str0" points="10095.12,11851.03 10085.36,11863.45 "/>
   <polygon class="fil8 str0" points="4839.65,11876.67 4828.02,11863.19 "/>
   <polygon class="fil6 str0" points="10057.73,11895.98 10044.88,11906.1 "/>
   <polygon class="fil16 str0" points="4893.57,11915.12 4876,11906.38 "/>
   <polygon class="fil1 str0" points="10035.98,11904.5 10013.95,11915.74 "/>
   <polygon class="fil10 str0" points="8306.34,11927.28 8290.38,11935.45 "/>
   <polygon class="fil6 str0" points="7317.93,11957.36 7308.14,11945.8 "/>
   <polygon class="fil4 str0" points="7330.19,11965.57 7317.93,11957.36 "/>
   <polygon class="fil17 str0" points="7348.72,11990 7341.24,11975.18 "/>
   <polygon class="fil2 str0" points="8231.09,11986.92 8222.03,11996.56 "/>
   <polygon class="fil5 str0" points="8221.02,12007.77 8212.14,12018.28 "/>
   <polygon class="fil21 str0" points="7368.69,12042.68 7361.77,12023.53 "/>
   <polygon class="fil13 str0" points="7358.31,12130.61 7371.19,12109.61 "/>
   <polygon class="fil23 str0" points="8220.61,12142.01 8212.77,12126.12 "/>
   <polygon class="fil15 str0" points="7360.03,12138.22 7349.67,12154.36 "/>
   <polygon class="fil20 str0" points="8231.68,12161.58 8221.16,12150.57 "/>
   <polygon class="fil1 str0" points="7348.6,12157.28 7339.77,12171.4 "/>
   <polygon class="fil2 str0" points="7329.92,12182.16 7317.62,12190.59 "/>
   <polygon class="fil13 str0" points="7317.62,12190.59 7308.45,12202.58 "/>
   <polygon class="fil12 str0" points="7301.73,12203.41 7287.83,12212.85 "/>
   <polygon class="fil21 str0" points="8283.1,12212.49 8271.86,12201.38 "/>
   <polygon class="fil21 str0" points="7281.03,12213.19 7266.42,12222.25 "/>
   <polygon class="fil12 str0" points="8303.9,12221.91 8290.34,12213.46 "/>
   <polygon class="fil22 str0" points="4642.01,12230.84 4626.1,12245.58 "/>
   <polygon class="fil10 str0" points="9931.72,12265.81 9923.55,12250.44 "/>
   <polygon class="fil8 str0" points="4593.12,12274.21 4583.06,12285.35 "/>
   <polygon class="fil14 str0" points="4582.33,12291.14 4574.43,12307.84 "/>
   <polygon class="fil5 str0" points="9954.24,12322.44 9940.94,12306.81 "/>
   <polygon class="fil17 str0" points="9962.45,12358.42 9955.96,12340.75 "/>
   <polygon class="fil2 str0" points="9974.27,12386.24 9961.72,12369.2 "/>
   <polygon class="fil16 str0" points="4602.27,12429.25 4592.67,12416.45 "/>
   <polygon class="fil16 str0" points="9984.42,12425.65 9973.81,12407.39 "/>
   <polygon class="fil6 str0" points="4612.38,12439.43 4602.27,12429.25 "/>
   <polygon class="fil16 str0" points="4625.5,12448.86 4612.38,12439.43 "/>
   <polygon class="fil8 str0" points="9994.13,12466.96 9984.23,12447.29 "/>
   <polygon class="fil15 str0" points="5834.76,12479.74 5820.27,12470.52 "/>
   <polygon class="fil22 str0" points="8694.32,12479.45 8680,12469.99 "/>
   <polygon class="fil16 str0" points="6909.93,12479.29 6897.76,12489.39 "/>
   <polygon class="fil24 str0" points="8710.08,12490.91 8699.2,12480.73 "/>
   <polygon class="fil13 str0" points="5865.04,12498.57 5853.53,12489.35 "/>
   <polygon class="fil4 str0" points="8723.43,12499.05 8710.08,12490.91 "/>
   <polygon class="fil5 str0" points="5875.14,12508.88 5865.04,12498.57 "/>
   <polygon class="fil5 str0" points="8733.58,12509.37 8723.43,12499.05 "/>
   <polygon class="fil11 str0" points="10004.26,12510.45 9994.44,12489.86 "/>
   <polygon class="fil13 str0" points="6869.81,12520.47 6857.91,12529.58 "/>
   <polygon class="fil12 str0" points="6857.9,12539.54 6848.29,12551.32 "/>
   <polygon class="fil23 str0" points="6846.28,12566.34 6839.74,12586.77 "/>
   <polygon class="fil14 str0" points="10024.86,12613.3 10016.09,12592.1 "/>
   <polygon class="fil22 str0" points="6846.73,12646.87 6840.11,12626.51 "/>
   <polygon class="fil21 str0" points="5904.36,12660.66 5896.12,12676.76 "/>
   <polygon class="fil6 str0" points="10035.92,12681.07 10025.17,12654.03 "/>
   <polygon class="fil2 str0" points="5895.73,12684.19 5884.82,12695.6 "/>
   <polygon class="fil16 str0" points="6869.74,12692.58 6859.56,12683.67 "/>
   <polygon class="fil19 str0" points="10045.59,12746.86 10035.35,12716.32 "/>
   <polygon class="fil22 str0" points="5816.89,12746.32 5798.03,12753.08 "/>
   <polygon class="fil13 str0" points="6955.21,12753.19 6936.58,12745.96 "/>
   <polygon class="fil21 str0" points="8675.59,12745.73 8656.31,12753.08 "/>
   <polygon class="fil10 str0" points="10054.91,12860.02 10047.7,12822.5 "/>
   <polygon class="fil12 str0" points="4831.35,12885.14 4838.71,12843.6 "/>
   <polygon class="fil4 str0" points="5485.26,13012.38 5464.79,13022.81 "/>
   <polygon class="fil8 str0" points="6871.17,13021.16 6853.76,13013.55 "/>
   <polygon class="fil2 str0" points="8714.49,13032.39 8698.16,13040.72 "/>
   <polygon class="fil23 str0" points="9084.35,13041.71 9069.19,13033.21 "/>
   <polygon class="fil19 str0" points="6918.97,13053.49 6908.05,13043.47 "/>
   <polygon class="fil7 str0" points="6930.5,13062.08 6918.97,13053.49 "/>
   <polygon class="fil5 str0" points="8671.43,13051.35 8661.77,13064.01 "/>
   <polygon class="fil10 str0" points="6940.03,13075.08 6930.5,13062.08 "/>
   <polygon class="fil14 str0" points="5393.11,13072.3 5382.18,13082.87 "/>
   <polygon class="fil2 str0" points="8652.97,13073.52 8641.26,13083.53 "/>
   <polygon class="fil10 str0" points="8641.26,13083.53 8630.59,13094.85 "/>
   <polygon class="fil14 str0" points="5381.67,13091.56 5373.29,13106.78 "/>
   <polygon class="fil8 str0" points="8630.77,13102.73 8621.36,13114.61 "/>
   <polygon class="fil2 str0" points="6961.45,13124.46 6949.56,13103.3 "/>
   <polygon class="fil14 str0" points="9163.82,13146.41 9153.91,13122.6 "/>
   <polygon class="fil16 str0" points="8620.8,13186.11 8619.77,13141.79 "/>
   <polygon class="fil9 str0" points="6949.06,13206.77 6961.04,13186.56 "/>
   <polygon class="fil4 str0" points="9153.05,13206.96 9163.75,13184.06 "/>
   <polygon class="fil6 str0" points="5383.13,13215.77 5373.16,13205.86 "/>
   <polygon class="fil2 str0" points="8629.59,13219.04 8621.31,13206.77 "/>
   <polygon class="fil1 str0" points="9152.15,13222.61 9143.97,13238.43 "/>
   <polygon class="fil22 str0" points="4840.46,13245.12 4828.04,13165.16 "/>
   <polygon class="fil4 str0" points="5404.56,13246.75 5392.59,13235.03 "/>
   <polygon class="fil6 str0" points="6928.9,13246.03 6919.7,13257.65 "/>
   <polygon class="fil10 str0" points="6919.7,13257.65 6907.88,13266.14 "/>
   <polygon class="fil10 str0" points="8661.85,13267.14 8651.5,13258.03 "/>
   <polygon class="fil6 str0" points="5435.78,13276.71 5427.1,13265.34 "/>
   <polygon class="fil19 str0" points="6900.67,13268.02 6888.48,13277.96 "/>
   <polygon class="fil9 str0" points="9113.52,13267.7 9102.91,13279.24 "/>
   <polygon class="fil16 str0" points="5458.59,13285.73 5443.79,13277.35 "/>
   <polygon class="fil4 str0" points="6880.49,13278.59 6864.72,13286.9 "/>
   <polygon class="fil5 str0" points="8692.91,13287.5 8682.5,13277.83 "/>
   <polygon class="fil12 str0" points="10045.18,13285.73 10055.77,13244.7 "/>
   <polygon class="fil8 str0" points="8717.37,13295.85 8701.75,13288.63 "/>
   <polygon class="fil6 str0" points="9072.41,13288.21 9047.45,13297.5 "/>
   <polygon class="fil10 str0" points="4849.35,13332.28 4838.57,13290.28 "/>
   <polygon class="fil17 str0" points="10026.75,13414.72 10035.43,13392.49 "/>
   <polygon class="fil2 str0" points="4861.85,13427.09 4848.18,13390.81 "/>
   <polygon class="fil6 str0" points="4868.59,13477.52 4859.67,13450.36 "/>
   <polygon class="fil8 str0" points="10015.64,13475.86 10024.99,13452.94 "/>
   <polygon class="fil13 str0" points="4879.87,13536.76 4870.58,13510.8 "/>
   <polygon class="fil14 str0" points="10003.44,13531.44 10013.95,13511.55 "/>
   <polygon class="fil17 str0" points="4888.84,13579.27 4878.81,13555.89 "/>
   <polygon class="fil11 str0" points="10002.47,13560.22 9994.66,13578.51 "/>
   <polygon class="fil21 str0" points="5516.78,13595.73 5503.31,13605.24 "/>
   <polygon class="fil16 str0" points="5876.13,13606.7 5861.53,13597.12 "/>
   <polygon class="fil13 str0" points="5496.24,13606.38 5484.24,13616.56 "/>
   <polygon class="fil4 str0" points="7425.78,13607.94 7411.89,13616.45 "/>
   <polygon class="fil8 str0" points="5903.58,13628.08 5895.09,13615.59 "/>
   <polygon class="fil6 str0" points="7402.37,13616.86 7391.81,13627.72 "/>
   <polygon class="fil9 str0" points="4901.83,13636.86 4891.49,13612.57 "/>
   <polygon class="fil8 str0" points="5914.92,13637.88 5903.58,13628.08 "/>
   <polygon class="fil9 str0" points="5464.5,13635.63 5454.63,13647.46 "/>
   <polygon class="fil10 str0" points="5454.63,13647.46 5445.43,13657.55 "/>
   <polygon class="fil9 str0" points="7371.53,13648.8 7358.89,13656.89 "/>
   <polygon class="fil4 str0" points="5936.29,13669.3 5925.48,13656.32 "/>
   <polygon class="fil12 str0" points="4912.91,13676.85 4901.4,13654 "/>
   <polygon class="fil20 str0" points="5443.88,13667.14 5434.62,13680.48 "/>
   <polygon class="fil5 str0" points="5945.65,13691.99 5936.52,13674.75 "/>
   <polygon class="fil8 str0" points="7350.03,13675.71 7340.78,13689.58 "/>
   <polygon class="fil14 str0" points="5424.17,13725.92 5435.66,13699.81 "/>
   <polygon class="fil16 str0" points="4929.81,13743.84 4922.79,13724.46 "/>
   <polygon class="fil8 str0" points="4942.74,13780.39 4931.32,13760.47 "/>
   <polygon class="fil1 str0" points="8827.41,15227.41 8817.74,15237.53 "/>
   <polygon class="fil17 str0" points="6068.91,15245.67 6058.34,15236.48 "/>
   <polygon class="fil2 str0" points="6080.95,15255.6 6068.91,15245.67 "/>
   <polygon class="fil8 str0" points="8795.49,15245.74 8785.19,15256.62 "/>
   <polygon class="fil2 str0" points="8845.17,15214.41 8836.03,15225.32 "/>
   <polygon class="fil1 str0" points="6117.94,15278.29 6108.53,15266.82 "/>
   <polygon class="fil11 str0" points="8743.35,15276.52 8733.18,15287.46 "/>
   <polygon class="fil21 str0" points="6153.33,15296.55 6140.12,15286.63 "/>
   <polygon class="fil6 str0" points="8724.76,15288.86 8712.69,15297.61 "/>
   <polygon class="fil5 str0" points="6173.31,15306.67 6159.03,15297.5 "/>
   <polygon class="fil1 str0" points="8705.13,15299.35 8695.6,15308.3 "/>
   <polygon class="fil6 str0" points="6193.63,15317.59 6180.56,15308.1 "/>
   <polygon class="fil6 str0" points="6212.31,15328.27 6199.89,15319.18 "/>
   <polygon class="fil8 str0" points="6232.78,15338.55 6220.46,15329.94 "/>
   <polygon class="fil10 str0" points="6252.67,15349.6 6240.83,15340.05 "/>
   <polygon class="fil17 str0" points="6017.99,15215.49 6005.73,15205.21 "/>
   <polygon class="fil17 str0" points="6275.81,15358.8 6260.85,15350 "/>
   <polygon class="fil6 str0" points="6294.65,15368.85 6281.52,15360 "/>
   <polygon class="fil1 str0" points="8582.25,15360.62 8570.83,15369.37 "/>
   <polygon class="fil5 str0" points="6316.87,15378.24 6302.41,15370.21 "/>
   <polygon class="fil15 str0" points="8560.34,15369.89 8545.58,15378.47 "/>
   <polygon class="fil14 str0" points="6339.39,15387.4 6324.23,15379.14 "/>
   <polygon class="fil7 str0" points="8541,15379.27 8526.76,15388.46 "/>
   <polygon class="fil4 str0" points="8877.79,15194.29 8867.18,15205.18 "/>
   <polygon class="fil22 str0" points="6388.99,15409.05 6373.28,15401.3 "/>
   <polygon class="fil2 str0" points="5998.74,15204.34 5987.3,15194.24 "/>
   <polygon class="fil19 str0" points="6410.83,15418.52 6395.36,15410.12 "/>
   <polygon class="fil17 str0" points="8470.9,15411.56 8457.25,15420.41 "/>
   <polygon class="fil1 str0" points="6440.76,15430.03 6425.63,15421.13 "/>
   <polygon class="fil13 str0" points="8449.27,15421.63 8433.61,15429.4 "/>
   <polygon class="fil22 str0" points="6460.64,15439.87 6445.39,15431.37 "/>
   <polygon class="fil10 str0" points="8420.04,15432.6 8404.98,15440.89 "/>
   <polygon class="fil10 str0" points="6490.96,15451.4 6475,15443.81 "/>
   <polygon class="fil8 str0" points="8394.5,15439.46 8377.81,15453.08 "/>
   <polygon class="fil6 str0" points="8368.96,15452.86 8352.44,15460.46 "/>
   <polygon class="fil10 str0" points="5987.3,15194.24 5976.58,15184.86 "/>
   <polygon class="fil12 str0" points="8345.72,15461.31 8328.97,15469.15 "/>
   <polygon class="fil13 str0" points="6573.94,15480.85 6558.06,15472.47 "/>
   <polygon class="fil21 str0" points="8316,15471.69 8298.15,15479.36 "/>
   <polygon class="fil6 str0" points="6606.44,15490.44 6588.43,15483.91 "/>
   <polygon class="fil21 str0" points="8285.51,15482.86 8268.22,15490.06 "/>
   <polygon class="fil20 str0" points="6636.38,15500.69 6618.59,15494.2 "/>
   <polygon class="fil11 str0" points="8254.94,15493.21 8237.03,15500.21 "/>
   <polygon class="fil4 str0" points="6667.81,15510.93 6649.54,15503.68 "/>
   <polygon class="fil2 str0" points="8224.25,15502.66 8205.68,15509.79 "/>
   <polygon class="fil19 str0" points="6699.07,15520.37 6680.77,15513.36 "/>
   <polygon class="fil4 str0" points="8184.37,15513.9 8166.1,15521.09 "/>
   <polygon class="fil19 str0" points="6736.15,15533.18 6715.73,15522.17 "/>
   <polygon class="fil5 str0" points="8148.11,15522.41 8128.73,15532.7 "/>
   <polygon class="fil4 str0" points="6778.56,15542.5 6754.79,15532.91 "/>
   <polygon class="fil16 str0" points="8107.91,15532.48 8088.13,15543.35 "/>
   <polygon class="fil8 str0" points="6826.85,15553.83 6806.08,15543.79 "/>
   <polygon class="fil5 str0" points="8068.65,15542.87 8043.83,15552.32 "/>
   <polygon class="fil22 str0" points="6867.96,15563.74 6847.66,15552.64 "/>
   <polygon class="fil16 str0" points="8017.27,15553.36 7994.65,15563.61 "/>
   <polygon class="fil6 str0" points="6919.89,15573.58 6896.63,15564.3 "/>
   <polygon class="fil9 str0" points="7974.05,15562.99 7951.62,15573.16 "/>
   <polygon class="fil4 str0" points="8907.1,15173.58 8897.02,15184.62 "/>
   <polygon class="fil6 str0" points="5956.37,15175.1 5945.84,15162.94 "/>
   <polygon class="fil24 str0" points="7907.39,15574.71 7881.88,15583.41 "/>
   <polygon class="fil1 str0" points="7051.03,15594.71 7019.35,15584.88 "/>
   <polygon class="fil10 str0" points="7847.12,15585.81 7818.48,15593.52 "/>
   <polygon class="fil8 str0" points="7130.11,15605.86 7085.19,15593.05 "/>
   <polygon class="fil16 str0" points="7780.17,15593.23 7740.12,15605.11 "/>
   <polygon class="fil5 str0" points="7217.35,15615.06 7165.6,15604.49 "/>
   <polygon class="fil9 str0" points="7695.08,15604.15 7654.54,15614.78 "/>
   <polygon class="fil2 str0" points="8938.69,15153.51 8927.72,15163.76 "/>
   <polygon class="fil10 str0" points="8950.18,15144.21 8938.69,15153.51 "/>
   <polygon class="fil16 str0" points="5926.16,15154.34 5913.45,15144.56 "/>
   <polygon class="fil12 str0" points="8968.41,15132.43 8957.54,15142.73 "/>
   <polygon class="fil24 str0" points="5913.45,15144.56 5903.9,15133.46 "/>
   <polygon class="fil10 str0" points="8979.39,15122.41 8968.41,15132.43 "/>
   <polygon class="fil9 str0" points="5896.6,15132.54 5883.81,15123.19 "/>
   <polygon class="fil16 str0" points="5883.81,15123.19 5874.64,15111.93 "/>
   <polygon class="fil10 str0" points="9020.89,15091.66 9010.74,15103.45 "/>
   <polygon class="fil22 str0" points="5842.86,15093.43 5832.44,15082.29 "/>
   <polygon class="fil9 str0" points="9050.75,15071.15 9039.77,15082.11 "/>
   <polygon class="fil1 str0" points="5832.44,15082.29 5822.28,15071.31 "/>
   <polygon class="fil6 str0" points="9062.35,15060.52 9050.75,15071.15 "/>
   <polygon class="fil13 str0" points="5792.14,15052.19 5782.37,15040.53 "/>
   <polygon class="fil17 str0" points="5782.37,15040.53 5770.71,15031.97 "/>
   <polygon class="fil11 str0" points="9112.74,15020.19 9102.75,15031.58 "/>
   <polygon class="fil17 str0" points="9122.52,15008.4 9112.74,15020.19 "/>
   <polygon class="fil1 str0" points="8169.63,15009.29 8155.89,15018.03 "/>
   <polygon class="fil6 str0" points="7598.5,15018.26 7585.17,15009.59 "/>
   <polygon class="fil15 str0" points="7576.15,15009.48 7567.45,14998.37 "/>
   <polygon class="fil22 str0" points="8200.07,14988.93 8190.77,15000.34 "/>
   <polygon class="fil18 str0" points="7567.45,14998.37 7554.56,14989.79 "/>
   <polygon class="fil4 str0" points="5730.5,15000.1 5720.51,14989.53 "/>
   <polygon class="fil11 str0" points="8211.14,14979.59 8200.07,14988.93 "/>
   <polygon class="fil9 str0" points="7554.56,14989.79 7544.28,14979.72 "/>
   <polygon class="fil10 str0" points="5720.51,14989.53 5710.86,14977.4 "/>
   <polygon class="fil5 str0" points="7544.28,14979.72 7534.69,14968.2 "/>
   <polygon class="fil2 str0" points="9194.02,14947.94 9185.12,14959.92 "/>
   <polygon class="fil11 str0" points="9205.17,14938.53 9194.02,14947.94 "/>
   <polygon class="fil23 str0" points="9215.44,14928.24 9205.17,14938.53 "/>
   <polygon class="fil16 str0" points="9226.39,14918.85 9215.44,14928.24 "/>
   <polygon class="fil22 str0" points="9236.74,14908.24 9226.39,14918.85 "/>
   <polygon class="fil15 str0" points="7512.81,14922.32 7506.28,14901.39 "/>
   <polygon class="fil17 str0" points="9246.71,14898.37 9236.74,14908.24 "/>
   <polygon class="fil6 str0" points="9257.27,14888.02 9246.71,14898.37 "/>
   <polygon class="fil8 str0" points="9266.85,14877.36 9257.27,14888.02 "/>
   <polygon class="fil11 str0" points="5608.65,14887.6 5598.25,14876.23 "/>
   <polygon class="fil16 str0" points="9278.42,14867.92 9266.85,14877.36 "/>
   <polygon class="fil11 str0" points="5598.25,14876.23 5587.4,14866.54 "/>
   <polygon class="fil10 str0" points="9287.13,14856.47 9278.42,14867.92 "/>
   <polygon class="fil23 str0" points="7505.08,14869.9 7513.94,14844.82 "/>
   <polygon class="fil4 str0" points="5587.4,14866.54 5578.1,14855.26 "/>
   <polygon class="fil17 str0" points="9297.48,14846.44 9287.13,14856.47 "/>
   <polygon class="fil21 str0" points="5578.1,14855.26 5567.17,14845.81 "/>
   <polygon class="fil10 str0" points="9308.07,14836.65 9297.48,14846.44 "/>
   <polygon class="fil6 str0" points="8242.29,14847.4 8229.04,14826.93 "/>
   <polygon class="fil5 str0" points="5567.17,14845.81 5557.24,14835.23 "/>
   <polygon class="fil16 str0" points="9319.14,14827.19 9308.07,14836.65 "/>
   <polygon class="fil22 str0" points="5557.24,14835.23 5547.24,14824.55 "/>
   <polygon class="fil22 str0" points="9328.88,14816.5 9319.14,14827.19 "/>
   <polygon class="fil2 str0" points="5547.24,14824.55 5535.68,14814.48 "/>
   <polygon class="fil21 str0" points="9340.04,14806.78 9328.88,14816.5 "/>
   <polygon class="fil24 str0" points="8229.78,14818.89 8220.77,14805.36 "/>
   <polygon class="fil1 str0" points="7534.82,14795.2 7525.3,14806.37 "/>
   <polygon class="fil11 str0" points="7545.41,14783.88 7534.82,14795.2 "/>
   <polygon class="fil12 str0" points="7565,14762.63 7555.26,14775.17 "/>
   <polygon class="fil4 str0" points="8180.94,14764.25 8168.53,14754.33 "/>
   <polygon class="fil5 str0" points="8162.11,14753.04 8146.61,14744.49 "/>
   <polygon class="fil1 str0" points="5485.26,14755.41 5471.19,14745.58 "/>
   <polygon class="fil13 str0" points="5110.66,14741.97 5092.73,14733.73 "/>
   <polygon class="fil16 str0" points="9421.51,14713.85 9408.6,14722.53 "/>
   <polygon class="fil22 str0" points="5064.33,14723.26 5054.91,14712.55 "/>
   <polygon class="fil1 str0" points="5044.72,14702.21 5032.96,14694.49 "/>
   <polygon class="fil8 str0" points="5022.64,14674.1 5014.11,14659.46 "/>
   <polygon class="fil15 str0" points="9472.66,14653.38 9460.46,14661.74 "/>
   <polygon class="fil21 str0" points="9482.84,14642.07 9472.66,14653.38 "/>
   <polygon class="fil6 str0" points="9513.45,14602.49 9501.35,14610.31 "/>
   <polygon class="fil16 str0" points="9544.43,14560.53 9533.03,14569.29 "/>
   <polygon class="fil15 str0" points="5022.09,14555.74 5013.99,14571.13 "/>
   <polygon class="fil2 str0" points="5033.52,14537.72 5024.14,14550.96 "/>
   <polygon class="fil15 str0" points="9565.43,14532.39 9555.62,14540.33 "/>
   <polygon class="fil4 str0" points="5045.57,14527.26 5033.52,14537.72 "/>
   <polygon class="fil10 str0" points="5088.33,14508.4 5070.03,14516.17 "/>
   <polygon class="fil22 str0" points="8535.8,14494.74 8509.5,14508.61 "/>
   <polygon class="fil2 str0" points="9594.66,14488.29 9583.55,14497.27 "/>
   <polygon class="fil13 str0" points="8577.99,14476.03 8568.64,14487.34 "/>
   <polygon class="fil9 str0" points="9614.88,14456.05 9604.07,14466.21 "/>
   <polygon class="fil14 str0" points="9635.85,14426.58 9623.89,14435.67 "/>
   <polygon class="fil6 str0" points="8639.27,14400.5 8630.62,14418.34 "/>
   <polygon class="fil18 str0" points="9656.91,14395.66 9645.02,14404.61 "/>
   <polygon class="fil4 str0" points="6047.54,15235.58 6038.81,15224.34 "/>
   <polygon class="fil20 str0" points="9667.06,14377.43 9657.5,14385.75 "/>
   <polygon class="fil6 str0" points="9697.61,14325.74 9687.02,14333.01 "/>
   <polygon class="fil12 str0" points="9727.79,14271.7 9718.22,14285.76 "/>
   <polygon class="fil8 str0" points="9738.38,14251.96 9728.31,14263.09 "/>
   <polygon class="fil10 str0" points="8630.2,14253.35 8619.75,14242.16 "/>
   <polygon class="fil4 str0" points="9768.12,14199.35 9758.29,14211.29 "/>
   <polygon class="fil14 str0" points="8543.48,14178.23 8524.2,14170.41 "/>
   <polygon class="fil13 str0" points="10085.98,14149.75 10064.46,14159.58 "/>
   <polygon class="fil1 str0" points="10159,14097.48 10146.69,14108.14 "/>
   <polygon class="fil4 str0" points="5067.83,14104.62 5052.29,14089 "/>
   <polygon class="fil16 str0" points="5053.35,14081.2 5044.79,14064.28 "/>
   <polygon class="fil8 str0" points="10177.46,14054.89 10169.53,14069.59 "/>
   <polygon class="fil4 str0" points="5043.65,14059.67 5034.8,14043.29 "/>
   <polygon class="fil6 str0" points="5022.29,14010.09 5014.03,13993.09 "/>
   <polygon class="fil13 str0" points="10177.61,13986.77 10168.8,13972.83 "/>
   <polygon class="fil10 str0" points="10168.36,13964.23 10159.51,13952.02 "/>
   <polygon class="fil14 str0" points="5006.57,13962.52 4992.32,13943.69 "/>
   <polygon class="fil13 str0" points="10159.09,13942.85 10147.23,13934.22 "/>
   <polygon class="fil15 str0" points="10147.23,13934.22 10137.78,13923.33 "/>
   <polygon class="fil2 str0" points="10137.78,13923.33 10126.29,13912.68 "/>
   <polygon class="fil22 str0" points="10099.25,13902.75 10081.88,13894.23 "/>
   <polygon class="fil14 str0" points="4982.21,13905.65 4974.65,13888.1 "/>
   <polygon class="fil1 str0" points="7459.07,13889.45 7438.15,13883.67 "/>
   <polygon class="fil21 str0" points="7426.22,13880.34 7411.23,13871.53 "/>
   <polygon class="fil5 str0" points="5877.23,13872.77 5860.76,13881.36 "/>
   <polygon class="fil22 str0" points="5516.62,13881.96 5504.31,13872.58 "/>
   <polygon class="fil17 str0" points="7403.99,13870.84 7391.54,13861.88 "/>
   <polygon class="fil15 str0" points="5895.78,13862.65 5882.89,13871.9 "/>
   <polygon class="fil10 str0" points="5496.78,13870.88 5485.17,13862.14 "/>
   <polygon class="fil4 str0" points="4970.92,13877.51 4963.54,13859.21 "/>
   <polygon class="fil22 str0" points="7391.54,13861.88 7382.08,13850.93 "/>
   <polygon class="fil9 str0" points="5906.04,13851.53 5895.78,13862.65 "/>
   <polygon class="fil21 str0" points="5485.17,13862.14 5474.62,13850.01 "/>
   <polygon class="fil19 str0" points="7382.08,13850.93 7371.24,13840.64 "/>
   <polygon class="fil8 str0" points="7371.24,13840.64 7360.27,13830.83 "/>
   <polygon class="fil4 str0" points="5465.84,13841.93 5454.49,13831.15 "/>
   <polygon class="fil22 str0" points="4962.07,13845.82 4953.34,13827.07 "/>
   <polygon class="fil16 str0" points="5935.79,13818.95 5926.62,13832.66 "/>
   <polygon class="fil1 str0" points="5454.49,13831.15 5444.98,13820.87 "/>
   <polygon class="fil22 str0" points="5934.39,13809.78 5948.37,13792.1 "/>
   <polygon class="fil6 str0" points="5443.95,13811.43 5434.6,13798.47 "/>
   <polygon class="fil5 str0" points="4951.3,13815.1 4943.02,13795.75 "/>
   <polygon class="fil5 str0" points="5434.11,13779.39 5425.41,13757.65 "/>
  </g>
 </g>
</svg>
